PathFileType	4	(X/Y/Z)	C:\Users\WrightLab\Desktop\Jo\P4V122.trc
DataRate	CameraRate	NumFrames	NumMarkers	Units	OrigDataRate	OrigDataStartFrame	OrigNumFrames
100.00	100.00	       19	19	mm	100.00	238	       633
Frame#	Time	Headset_Front			Headset_Back			Headset_Left			Headset_Right			Left_Shoulder			Right_Shoulder			Sternum			C7			Left Elbow			Right Elbow			Left Wrist			Right Wrist			Left ASIS			Right ASIS			S2			Left Knee			Right Knee			Left Ankle			Right Ankle			
		X1	Y1	Z1	X2	Y2	Z2	X3	Y3	Z3	X4	Y4	Z4	X5	Y5	Z5	X6	Y6	Z6	X7	Y7	Z7	X8	Y8	Z8	X9	Y9	Z9	X10	Y10	Z10	X11	Y11	Z11	X12	Y12	Z12	X13	Y13	Z13	X14	Y14	Z14	X15	Y15	Z15	X16	Y16	Z16	X17	Y17	Z17	X18	Y18	Z18	X19	Y19	Z19	

238	2.370	-560.19885	1736.41858	-398.22760	-622.13672	1019.46112	-398.05157							-410.98065	1479.61694	-324.61520	-715.31348	1495.28088	-289.90414	-542.29822	1423.00171	-201.91499	-571.83881	1517.11597	-366.10886	-292.54166	1140.48901	-237.47598	-877.66595	1158.61975	-297.98236	-388.16464	991.27600	17.36449	-897.06909	871.04120	-184.79440	-419.90555	971.75598	-276.07462	-729.63550	1009.41949	-157.48209				-524.93646	502.85495	-376.66858	-728.85449	559.02887	-38.64421	-672.99799	50.02971	-565.93207	-681.80865	69.18539	118.20659	
239	2.380	-559.08807	1734.54883	-387.91098	-621.83734	1018.08380	-387.54535							-409.26443	1478.39600	-314.55289	-713.78918	1494.29980	-279.10626	-539.51697	1421.52209	-191.71686	-570.24054	1515.87427	-355.31403	-290.42487	1138.58606	-227.66524	-876.08063	1157.04822	-285.21042	-385.07932	988.53882	26.69294	-895.15662	870.12317	-170.79041	-418.94629	970.84106	-266.80670	-727.15094	1007.92389	-145.04500				-522.81390	502.53171	-370.50034	-723.07300	559.10620	-25.06838	-671.82794	52.52164	-565.24945	-673.68555	68.41705	128.15918	
240	2.390	-557.94067	1732.81677	-377.05948	-519.94623	1634.81763	-99.02486							-407.50388	1477.32178	-304.84280	-711.92810	1492.77124	-267.97141	-538.14880	1419.93188	-180.06975	-569.02185	1515.06628	-344.10117	-287.16556	1137.50647	-216.49237	-874.41156	1156.12000	-273.50607	-381.59140	985.29828	37.28898	-894.51215	870.19104	-158.10373	-417.19189	969.87891	-257.14633	-726.65710	1006.39246	-137.21725	-621.23224	1016.98645	-377.09027	-521.64178	502.28052	-363.89178	-716.38824	560.59460	-8.07861	-672.32391	53.48951	-564.04242	-665.95282	65.84727	135.78819	
241	2.400	-556.64038	1731.73254	-366.81122	-517.50116	1633.95361	-87.80515							-405.74170	1476.25000	-292.57202	-710.59003	1491.84338	-256.59122	-536.22198	1419.24084	-169.80890	-566.84753	1514.18188	-332.95242	-285.62677	1136.35559	-206.13136	-872.71777	1154.90076	-261.21921	-378.15607	981.70892	47.10197	-892.30267	869.17578	-143.88380	-416.28702	969.07440	-247.32530	-724.38739	1006.75897	-124.74538				-519.27582	502.69745	-357.06125	-711.42969	558.48969	-1.78588	-670.84100	57.14299	-563.30023	-659.78052	64.11501	142.78285	
242	2.410	-555.37549	1730.33105	-355.72083	-619.69958	1014.59167	-353.11157							-403.87762	1474.63977	-280.28525	-708.25781	1491.17773	-244.86247	-534.40527	1417.47046	-158.34714	-565.30676	1513.16943	-322.35712	-283.90186	1134.79138	-195.82098	-871.27740	1153.49890	-247.63593	-374.12943	977.60559	56.83508	-889.80322	868.42426	-130.34222	-414.67731	968.21985	-236.91641	-721.73407	1005.77222	-112.05534				-517.28693	502.73465	-349.04160	-704.97809	561.29413	19.35425	-670.23004	60.62895	-560.51941	-655.94879	62.86243	149.30153	
243	2.420	-554.04810	1729.28137	-345.48199										-402.41089	1474.12231	-270.50342	-706.76123	1490.03345	-233.62991	-531.85065	1416.89026	-147.46727	-563.82190	1512.24011	-310.82529	-281.36002	1134.38660	-185.27916	-869.57898	1152.37549	-234.93156	-370.85855	973.49280	66.23467	-887.38739	868.87329	-116.38902	-412.79224	966.73273	-227.05295	-718.52643	1005.94269	-98.63288				-514.82849	502.81018	-341.80753	-698.92688	560.63562	31.52234	-670.01385	62.52229	-559.38678	-651.29108	58.93390	153.43964	
244	2.430	-552.71667	1728.33118	-334.81580										-400.86642	1473.57227	-259.31924	-705.06299	1489.42566	-222.46327	-530.22247	1416.19336	-135.82851	-561.92572	1511.44666	-300.00339	-279.44159	1133.03662	-174.67029	-867.44879	1152.62842	-223.76118	-365.44138	968.81567	74.50829	-885.61896	868.20776	-102.61507	-410.57849	966.76501	-216.40685	-715.63776	1005.91205	-85.53431	-617.86261	1013.18170	-328.86392	-512.16486	503.45154	-333.46555	-692.58972	559.92438	44.20849	-669.57214	67.61134	-558.21545	-648.25128	58.36685	158.19826	
245	2.440	-551.26178	1727.72351	-323.47659										-399.22382	1472.85400	-248.72047	-703.25085	1488.91748	-211.46130	-528.46082	1415.25220	-124.68346	-560.36627	1510.60510	-289.33469	-277.23395	1132.85620	-163.87892	-865.35248	1151.75916	-210.92227	-360.80502	964.08185	84.12598	-882.98395	868.60272	-88.13457	-408.59482	965.95270	-204.99620	-711.43695	1006.64038	-71.42535	-616.79675	1012.96729	-315.35278	-509.41431	504.01926	-324.11496	-686.19501	560.27728	58.15136	-668.86017	70.87632	-555.04645	-645.30048	55.95004	162.46980	
246	2.450	-549.81567	1727.28772	-312.82419										-397.13641	1472.10266	-237.50449	-701.19965	1488.33289	-199.82701	-525.66736	1415.37390	-113.64095	-558.88153	1509.66931	-278.01593	-275.63693	1131.88391	-152.15746	-863.65997	1151.17310	-198.26210	-356.22543	959.74170	92.18815	-880.75171	868.36621	-74.19600	-405.95554	965.28015	-194.64284	-706.70801	1006.68604	-56.38169	-616.14142	1012.40350	-301.95047	-506.67108	503.74582	-314.37671	-680.10883	557.36285	71.49503	-669.19452	73.45420	-553.61798	-642.41254	54.57542	167.29172	
247	2.460	-548.50366	1726.93530	-301.79306										-395.94119	1471.98535	-227.57301	-699.56781	1487.53857	-188.21693	-523.89337	1415.59692	-102.63241	-557.78351	1508.94458	-267.55127	-273.46350	1131.95642	-142.51459	-861.56744	1150.21973	-185.30461	-351.05188	954.60938	99.97855	-877.63538	868.80078	-59.11269	-403.42474	964.46844	-184.28961	-701.62860	1008.05945	-43.63474	-615.27374	1012.14520	-288.12921	-503.31738	504.30411	-304.00873	-674.46930	556.24078	82.72564	-668.66003	78.03268	-550.17389	-639.80591	53.60956	171.60080	
248	2.470													-394.36481	1471.74841	-216.76761	-697.19128	1487.49500	-176.42253	-521.29846	1416.60388	-91.18317	-555.80371	1508.30664	-256.36407	-271.63828	1131.25586	-131.57916	-860.08270	1149.62402	-172.66217	-345.70782	949.89948	108.49997	-874.69983	868.67163	-44.85519	-400.26794	964.40613	-173.21272	-696.29883	1009.07416	-27.36121	-614.24341	1012.48492	-274.65741	-500.19254	503.79984	-292.68393	-668.67212	554.65997	92.87327	-668.15210	82.15405	-546.51001	-638.90399	54.03474	174.83369	
249	2.480													-392.48376	1471.60681	-207.05731	-695.53345	1487.51807	-164.72224	-519.48120	1416.54517	-80.24800	-554.62091	1508.72693	-245.93378	-269.77335	1131.83801	-121.24847	-857.50232	1149.62207	-160.21851	-340.57809	944.22650	115.90777	-870.88257	869.68158	-30.68157	-397.94632	963.92566	-161.98647	-691.50891	1011.00500	-13.90336	-612.70886	1013.34796	-261.29346	-496.00830	503.40118	-280.03906	-663.02753	556.42334	105.97727	-665.32428	88.63402	-544.17584	-638.15778	53.34544	176.87094	
250	2.490													-390.26883	1472.25623	-197.56445	-694.00256	1487.43811	-153.84760	-516.58124	1418.49695	-68.87904	-553.05957	1508.81787	-234.62999	-268.26218	1131.56213	-111.02308	-855.08301	1149.62280	-146.33771	-335.36774	939.45068	123.10675	-867.66638	869.34418	-15.71147	-395.05319	964.08759	-150.86243	-687.10028	1012.90674	-1.83943	-610.72235	1014.37378	-248.17561	-491.96219	503.48169	-265.75177	-658.56433	560.09204	118.26370	-663.33264	95.05051	-538.21265	-638.41968	52.60430	177.57170	
251	2.500													-388.46390	1473.37073	-186.15230	-691.86334	1488.55554	-141.56244	-513.45496	1419.96924	-58.16044	-551.18823	1509.94983	-223.72734	-265.73895	1132.18604	-101.45797	-852.38953	1149.79712	-132.77133	-329.66739	934.57788	128.91312	-863.77783	869.98218	0.27114	-391.84079	964.24670	-140.11714	-682.41937	1015.05884	10.69052	-608.39539	1015.54529	-235.15225	-487.03113	502.02997	-250.24883	-654.11768	563.39764	131.22293	-661.03284	100.62286	-531.91931	-638.56146	51.86369	178.29890	
252	2.510													-385.81546	1474.61523	-175.20052	-689.70776	1489.02734	-129.59518	-510.79684	1421.08789	-46.65563	-549.37280	1510.33911	-212.56593	-263.47168	1133.44934	-92.74614	-849.65173	1149.78601	-117.85344	-324.01236	930.09039	134.65549	-860.11810	871.30109	13.19205	-389.18265	964.20459	-129.42300	-677.46289	1017.89484	25.01887	-605.42493	1017.50812	-223.83330	-481.73102	500.57141	-233.90672	-649.66345	565.77417	142.92880	-658.71698	108.93041	-526.72882	-638.87903	51.27592	180.08699	
253	2.520													-382.96759	1476.24011	-164.70547	-687.34241	1490.47620	-118.46595	-508.06992	1423.30786	-36.14149	-547.27344	1511.80383	-201.51390	-261.08035	1134.76306	-84.20999	-846.70471	1151.54346	-103.96336	-318.29178	925.89307	139.86232	-856.79755	872.67645	28.80065	-386.26828	964.42340	-118.23647	-673.58014	1020.20300	37.45356	-602.32043	1019.03094	-212.15050	-476.13400	498.00345	-215.43410	-647.24347	568.44000	155.35684	-656.94012	117.26043	-519.94800	-639.31775	51.30929	181.46428	
254	2.530										-596.60095	1676.87646	-5.42658	-381.78934	1478.11890	-156.30647	-684.14105	1491.27075	-105.73887	-505.16373	1425.28650	-24.50879	-545.26776	1513.31970	-190.56659	-258.39951	1135.81445	-75.38699	-842.93719	1152.61243	-89.50426	-312.23056	922.21844	144.65353	-852.07904	873.81274	43.67611	-383.26248	965.27283	-107.94103	-670.26288	1022.41443	48.91667	-599.07410	1019.94647	-200.68874	-470.58429	496.13562	-196.48141	-644.84229	569.85437	168.15933	-655.99377	128.27194	-512.18188	-638.82990	51.29147	182.15681	
255	2.540	-466.55020	1646.76514	80.36701							-593.80188	1678.99426	4.74993	-379.76944	1479.82324	-146.80428	-682.14514	1492.88477	-95.59812	-501.98074	1427.27588	-13.69980	-543.25000	1514.64966	-179.20818	-256.31165	1136.96777	-67.11517	-839.53632	1153.59802	-74.93755	-306.10089	919.22223	149.09247	-847.49133	875.60065	58.22913	-380.13803	965.71802	-98.32720	-666.83679	1023.96503	60.75204	-595.95618	1020.47876	-188.62352	-463.82303	493.26825	-175.79341	-643.19873	571.80304	180.42075	-655.08643	140.21507	-502.68082	-638.43323	51.52885	183.25835	
256	2.550	-462.10718	1648.16638	89.99415							-589.89227	1680.19104	15.94819	-377.62659	1481.69507	-136.76878	-678.93365	1495.13440	-82.78878	-498.93790	1429.07715	-3.24993	-541.39478	1516.28906	-168.91806	-253.89925	1138.10510	-60.28666	-835.86841	1154.98193	-60.53904	-299.78873	915.84576	153.21329	-843.18604	878.08746	74.79954	-378.16516	965.99994	-86.57204	-663.43488	1026.05664	73.90630	-592.74786	1021.20361	-177.51122	-456.87894	491.40152	-154.76775	-642.58893	572.20538	191.62091	-655.44434	153.52869	-490.50998	-638.44470	51.94098	184.55269	
